Dear God No 2011 DVDSCR XviD-26k


 
http://www.imdb.com/title/tt1947998/



Plot:

A gang of outlaw bikers pull a home invasion on a disgraced Anthropologist hiding a secret locked in his cabin basement.



Sources - SiC....Thanks 



Format                                   : AVI

Format/Info                              : Audio Video Interleave

File size                                : 1.41 GiB

Duration                                 : 1h 21mn

Overall bit rate                         : 2 473 Kbps

Writing library                          : VirtualDub build 32839/release



Video

ID                                       : 0

Format                                   : MPEG-4 Visual

Format profile                           : Advanced Simple@L5

Format settings, BVOP                    : 2

Format settings, QPel                    : No

Format settings, GMC                     : No warppoints

Format settings, Matrix                  : Default (H.263)

Muxing mode                              : Packed bitstream

Codec ID                                 : XVID

Codec ID/Hint                            : XviD

Duration                                 : 1h 21mn

Bit rate                                 : 2 271 Kbps

Width                                    : 720 pixels

Height                                   : 400 pixels

Display aspect ratio                     : 16:9

Frame rate                               : 23.976 fps

Color space                              : YUV

Chroma subsampling                       : 4:2:0

Bit depth                                : 8 bits

Scan type                                : Progressive

Compression mode                         : Lossy

Bits/(Pixel*Frame)                       : 0.329

Stream size                              : 1.29 GiB (92%)

Writing library                          : XviD 1.2.1 (UTC 2008-12-04)



Audio

ID                                       : 1

Format                                   : AC-3

Format/Info                              : Audio Coding 3

Mode extension                           : CM (complete main)

Codec ID                                 : 2000

Duration                                 : 1h 21mn

Bit rate mode                            : Constant

Bit rate                                 : 192 Kbps

Channel(s)                               : 2 channels

Channel positions                        : Front: L R

Sampling rate                            : 48.0 KHz

Bit depth                                : 16 bits

Compression mode                         : Lossy

Stream size                              : 112 MiB (8%)

Alignment                                : Split accross interleaves

Interleave, duration                     : 42 ms (1.00 video frame)

Interleave, preload duration             : 500 ms









Notes -



Denoised, degrained, levels and a touch of brightness. turned out good.. enjoy